# xmcd
#
# Track frame offsets:
#	150
#	14585
#	30567
#	43176
#	55633
#	68922
#	82806
#	93840
#	105924
#	123108
#	139691
#	153200
#
# Disc length: 2215 seconds
#
# Revision: 1
# Processed by: cddbd v1.5.2PL0 Copyright (c) Steve Scherf et al.
# Submitted via: audiograbber 1.83.01
#
DISCID=8608a50c
DTITLE=Eberhard Hertel, Stefanie Hertel, Stefan Mross - Beliebte Stars der Volk
DTITLE=smusik
DYEAR=1900
DGENRE=
TTITLE0=Daheim ist daheim
TTITLE1=die besten Jahre, die kommen noch
TTITLE2=Die Sterne am Himmel
TTITLE3=Amazing Grace
TTITLE4=Heimwehmelodie
TTITLE5=Am schönsten sind die Lieder der Heimat
TTITLE6=So schön ist Voksmusik
TTITLE7=Alles was Spaß macht
TTITLE8=Es ist gut, dass es Freunde gibr
TTITLE9=Nicht jeder kann ein Mozart sein
TTITLE10=So a Stückel heile Welt
TTITLE11=Über jedes Bachel geht a Brückerl
EXTD=
EXTT0=
EXTT1=
EXTT2=
EXTT3=
EXTT4=
EXTT5=
EXTT6=
EXTT7=
EXTT8=
EXTT9=
EXTT10=
EXTT11=
PLAYORDER=
